# xmcd CD database file
#
# Track frame offsets:
#	150
#	51188
#	101495
#	139666
#	218548
#	321495
#
# Disc length: 4690 seconds
#
# Revision: 0
# Processed by: cddbd v1.5.2PL0 Copyright (c) Steve Scherf et al.
# Submitted via: CDex 1.70beta2
#
DISCID=52125006
DTITLE=Joe McPhee - The Vassar Sessions
DYEAR=1970
DGENRE=Jazz
TTITLE0=Cold Sweat
TTITLE1=Contemplation
TTITLE2=Spring Street
TTITLE3=Hymn of the Dragon Kings
TTITLE4=Sunshower
TTITLE5=Untitled
EXTD=YEAR: 1970
EXTT0=
EXTT1=
EXTT2=
EXTT3=
EXTT4=
EXTT5=
PLAYORDER=
